<svg xmlns="http://www.w3.org/2000/svg" viewBox="0 0 73.12 41.73"><defs><style>.cls-1{fill:#0d090a;}.cls-2{fill:#b41f24;}</style></defs><g id="Layer_2" data-name="Layer 2"><g id="_6" data-name="6"><path class="cls-1" d="M39.48,6.05c4-4.26,10-5.57,15.59-5.34L71.92.06l1.2,0V41.62c-7.25.16-14.25.11-21.47.06A21,21,0,0,1,34.07,31.1c-3.91-5.57-.93-13.74-6.34-18.35C22.58,8.43,15.25,10.52,9,10.15L10.15,9V32.71c0,.15-1.09-1.17-1.09-1.14l10.3.62a12.09,12.09,0,0,0,9.45-2.8c-1.61,2.73-6.18,4.09-9.45,4.07-.48,0-11.4.53-11.57.51V7.79C13.26,8,19,7.11,24.43,8.32c5.49,1.46,9.27,7,9.26,12.51a19.68,19.68,0,0,0,2.44,9.11,18.61,18.61,0,0,0,15.61,9.38c6.63,0,13.53.09,20.13,0l-1.11,1.18V1.24S72,2.44,71.92,2.42L55.1,1.89c-5.68-.59-11.26.2-15.62,4.16Z"/><path class="cls-2" d="M33.64,35.68c-4,4.26-10,5.57-15.59,5.34L1.2,41.66l-1.2,0V.11C7.25,0,14.25,0,21.47.05A21,21,0,0,1,39.05,10.62C43,16.19,40,24.36,45.39,29c5.15,4.32,12.48,2.22,18.75,2.6L63,32.76V9c0-.15,1.09,1.18,1.1,1.15l-10.3-.67a12.15,12.15,0,0,0-9.51,2.78,12.77,12.77,0,0,1,9.51-4c.46,0,11.42-.58,11.56-.56V33.94c-5.46-.16-11.19.68-16.64-.53-5.48-1.46-9.27-7-9.25-12.51A19.88,19.88,0,0,0,37,11.78,18.61,18.61,0,0,0,21.37,2.41c-6.62-.05-13.53-.09-20.13,0L2.36,1.26V40.48S1.13,39.28,1.2,39.3L18,39.84c5.68.59,11.26-.21,15.62-4.16Z"/></g></g></svg>