<svg xmlns="http://www.w3.org/2000/svg" viewBox="0 0 70.76 40.38"><defs><style>.cls-1{fill:#fff;}.cls-2{fill:#b41f24;}</style></defs><g id="Layer_2" data-name="Layer 2"><g id="_9" data-name="9"><path class="cls-1" d="M38.2,5.85C42.08,1.73,47.86.47,53.29.68L69.6.06l1.16,0V40.28c-7,.15-13.79.1-20.78,0A20.31,20.31,0,0,1,33,30.1c-3.79-5.39-.91-13.3-6.14-17.76-5-4.18-12.08-2.16-18.15-2.52L9.83,8.68v23c0,.14-1.06-1.14-1.06-1.11l10,.6a11.73,11.73,0,0,0,9.15-2.71c-1.56,2.64-6,4-9.14,3.94-.47,0-11,.52-11.2.5V7.53c5.29.16,10.83-.65,16.1.52a12.63,12.63,0,0,1,9,12.1A19.24,19.24,0,0,0,35,29a18,18,0,0,0,15.11,9.07c6.42,0,13.1.09,19.48,0l-1.08,1.14V1.2s1.19,1.17,1.13,1.15L53.32,1.83c-5.5-.57-10.89.2-15.12,4Z"/><path class="cls-2" d="M32.55,34.53c-3.88,4.12-9.65,5.38-15.08,5.17l-16.31.62L0,40.35V.1C7,0,13.79,0,20.78.05a20.32,20.32,0,0,1,17,10.23c3.78,5.39.9,13.3,6.13,17.76,5,4.18,12.08,2.16,18.15,2.52L60.93,31.7v-23c0-.14,1.06,1.14,1.06,1.11L52,9.19a11.76,11.76,0,0,0-9.2,2.68A12.4,12.4,0,0,1,52,8c.45,0,11.06-.56,11.19-.54V32.84c-5.28-.15-10.83.66-16.1-.51a12.63,12.63,0,0,1-9-12.1,19.13,19.13,0,0,0-2.37-8.83A18,18,0,0,0,20.68,2.33c-6.41,0-13.09-.09-19.48,0L2.29,1.22v38S1.1,38,1.16,38l16.28.52c5.49.57,10.89-.2,15.11-4Z"/></g></g></svg>