<svg width="262" height="35" viewBox="0 0 262 35" fill="none" xmlns="http://www.w3.org/2000/svg">
<circle cx="16" cy="16" r="16" transform="matrix(-1 0 0 1 49.2799 1.27979)" stroke="url(#paint0_linear_300_681)" stroke-width="2.56"/>
<circle cx="16" cy="16" r="16" transform="matrix(-1 0 0 1 33.28 1.27979)" stroke="url(#paint1_linear_300_681)" stroke-width="2.56"/>
<path d="M20.1591 17.7451V16.8142H22.9518V17.7451H20.1591ZM23.3009 15.9531L22.3234 14.9757L22.9751 14.324L23.9525 15.3015L23.3009 15.9531ZM24.8136 14.9524V12.1597H25.7445V14.9524H24.8136ZM27.2572 15.9531L26.6056 15.3015L27.5831 14.324L28.2347 14.9757L27.2572 15.9531ZM27.6063 17.7451V16.8142H30.3991V17.7451H27.6063ZM25.2791 18.676C24.8912 18.676 24.5615 18.5403 24.29 18.2688C24.0185 17.9972 23.8827 17.6675 23.8827 17.2797C23.8827 16.8918 24.0185 16.5621 24.29 16.2906C24.5615 16.0191 24.8912 15.8833 25.2791 15.8833C25.6669 15.8833 25.9966 16.0191 26.2681 16.2906C26.5397 16.5621 26.6754 16.8918 26.6754 17.2797C26.6754 17.6675 26.5397 17.9972 26.2681 18.2688C25.9966 18.5403 25.6669 18.676 25.2791 18.676ZM27.5831 20.2353L26.6056 19.2578L27.2572 18.6062L28.2347 19.5837L27.5831 20.2353ZM22.9751 20.2353L22.3234 19.5837L23.3009 18.6062L23.9525 19.2578L22.9751 20.2353ZM24.8136 22.3997V19.6069H25.7445V22.3997H24.8136Z" fill="#F6C648"/>
<path d="M69.7546 28.919L60.635 5.46579C60.5471 5.22169 60.1272 5.22169 60.0394 5.46579L50.949 28.919C50.8612 29.1045 50.9783 29.2803 51.2517 29.2803H55.3624C55.4795 29.2803 55.626 29.2217 55.6553 29.1045L60.342 15.718L65.0776 29.1045C65.1069 29.2217 65.2533 29.2803 65.351 29.2803H69.4909C69.696 29.2803 69.8424 29.1045 69.7546 28.919Z" fill="#004085"/>
<path d="M86.9759 24.8079H74.019V29.0064C74.019 29.1333 74.1655 29.2798 74.351 29.2798H86.9759C87.1907 29.2798 87.3079 29.1333 87.3079 29.0064V25.1105C87.3079 24.9641 87.1907 24.8079 86.9759 24.8079ZM78.6081 20.2188V5.55318C78.6081 5.43601 78.491 5.27979 78.3055 5.27979H74.351C74.1655 5.27979 74.019 5.43601 74.019 5.55318V20.2188H78.6081Z" fill="#004085"/>
<path d="M101.068 25.1691H98.6763V5.27979H94.0872V25.1691H91.6267C91.4411 25.1691 91.2947 25.2863 91.2947 25.4425V29.0064C91.2947 29.1333 91.4411 29.2798 91.6267 29.2798H101.068C101.283 29.2798 101.4 29.1333 101.4 29.0064V25.4425C101.4 25.2863 101.283 25.1691 101.068 25.1691Z" fill="#004085"/>
<path d="M123.51 9.69313V5.55318C123.51 5.43601 123.393 5.27979 123.178 5.27979H119.282C113.307 5.27979 105.212 7.02755 105.212 17.2798C105.212 27.9323 113.404 29.2798 119.282 29.2798H123.178C123.393 29.2798 123.51 29.1333 123.51 29.0064V14.3115H114.302V18.9006H118.921V24.8957C113.697 25.1691 109.831 22.982 109.831 17.2798C109.831 9.86888 116.011 9.57596 118.921 9.69313H123.51Z" fill="#007BFF"/>
<path d="M147.6 5.27979H143.724C143.519 5.27979 143.372 5.43601 143.372 5.55318V21.1854L132.3 5.37743C132.271 5.30908 132.085 5.27979 132.027 5.27979H128.043C127.887 5.27979 127.74 5.43601 127.74 5.55318V23.519H132.329V13.3839L143.372 29.1919C143.402 29.2505 143.577 29.2798 143.636 29.2798H147.6C147.805 29.2798 147.922 29.1333 147.922 29.0064V5.55318C147.922 5.43601 147.805 5.27979 147.6 5.27979Z" fill="#007BFF"/>
<path d="M157.2 13.9795V29.0064C157.2 29.1333 157.317 29.2798 157.532 29.2798H161.398C161.603 29.2798 161.76 29.1333 161.76 29.0064V13.9795H157.2ZM152.581 9.39044H166.349C166.554 9.39044 166.681 9.27328 166.681 9.12682V5.55318C166.681 5.43601 166.554 5.27979 166.349 5.27979H152.581C152.396 5.27979 152.25 5.43601 152.25 5.55318V9.12682C152.25 9.27328 152.396 9.39044 152.581 9.39044Z" fill="#007BFF"/>
<path d="M187.072 28.8892C185.578 25.5597 183.957 22.2594 182.454 18.8713C184.856 18.0023 186.867 16.0788 186.867 12.4271C186.867 5.34813 180.12 5.27979 178.763 5.27979H171.001C170.844 5.27979 170.698 5.43601 170.698 5.55318V9.63454H178.763C179.486 9.63454 182.307 9.78101 182.307 12.4271C182.307 15.0633 179.759 15.1805 178.763 15.1805H170.698V29.0064C170.698 29.1333 170.844 29.2798 171.001 29.2798H174.926C175.111 29.2798 175.258 29.1333 175.258 29.0064V19.5939H177.835L182.219 29.104C182.249 29.1919 182.424 29.2798 182.512 29.2798H186.809C187.043 29.2798 187.17 29.104 187.072 28.8892Z" fill="#007BFF"/>
<path d="M210.08 28.919L200.961 5.46579C200.873 5.22169 200.453 5.22169 200.365 5.46579L191.275 28.919C191.187 29.1045 191.304 29.2803 191.577 29.2803H195.688C195.805 29.2803 195.952 29.2217 195.981 29.1045L200.668 15.718L205.403 29.1045C205.433 29.2217 205.579 29.2803 205.677 29.2803H209.817C210.022 29.2803 210.168 29.1045 210.08 28.919Z" fill="#007BFF"/>
<path d="M224.115 25.1691H221.723V5.27979H217.134V25.1691H214.673C214.488 25.1691 214.341 25.2863 214.341 25.4425V29.0064C214.341 29.1333 214.488 29.2798 214.673 29.2798H224.115C224.33 29.2798 224.447 29.1333 224.447 29.0064V25.4425C224.447 25.2863 224.33 25.1691 224.115 25.1691Z" fill="#007BFF"/>
<path d="M233.21 13.9795V29.0064C233.21 29.1333 233.327 29.2798 233.542 29.2798H237.408C237.613 29.2798 237.77 29.1333 237.77 29.0064V13.9795H233.21ZM228.591 9.39044H242.359C242.564 9.39044 242.691 9.27328 242.691 9.12682V5.55318C242.691 5.43601 242.564 5.27979 242.359 5.27979H228.591C228.406 5.27979 228.259 5.43601 228.259 5.55318V9.12682C228.259 9.27328 228.406 9.39044 228.591 9.39044Z" fill="#007BFF"/>
<path d="M257.708 15.9616C255.999 15.1512 254.32 15.1512 254.173 15.1512C252.64 15.1512 251.176 14.2529 251.176 12.5149C251.176 10.5914 252.523 9.60525 254.173 9.60525C255.736 9.60525 257.054 10.4157 257.112 12.1244C257.112 12.2123 257.259 12.3587 257.444 12.3587H261.194C261.399 12.3587 261.555 12.2123 261.526 12.1244C261.457 8.04301 258.284 5.27979 254.173 5.27979C250.336 5.27979 246.704 8.01372 246.704 12.5149C246.704 15.2977 248.11 17.436 250.6 18.5686C252.347 19.3791 253.959 19.3791 254.173 19.3791C255.521 19.4376 257.171 20.5214 257.171 22.2887C257.171 23.8803 255.765 24.9641 254.173 24.9641C254.173 24.9641 254.173 24.9641 254.144 24.9641V29.2798C254.173 29.2798 254.173 29.2798 254.173 29.2798C258.011 29.2798 261.614 26.79 261.614 22.2887C261.614 19.4669 260.227 17.1333 257.708 15.9616Z" fill="#007BFF"/>
<defs>
<linearGradient id="paint0_linear_300_681" x1="19" y1="16" x2="24" y2="16" gradientUnits="userSpaceOnUse">
<stop stop-color="#007AFF"/>
<stop offset="1" stop-color="#F6C648"/>
</linearGradient>
<linearGradient id="paint1_linear_300_681" x1="13" y1="16" x2="8" y2="16" gradientUnits="userSpaceOnUse">
<stop stop-color="#004085"/>
<stop offset="1" stop-color="#F6C648"/>
</linearGradient>
</defs>
</svg>
